<svg width="146" height="28" viewBox="0 0 146 28" fill="none" xmlns="http://www.w3.org/2000/svg">
<g id="Vector">
<path d="M36.9362 10.1563C35.4228 8.24712 33.2978 7.29553 30.5608 7.29553C27.8236 7.29553 25.7164 8.29498 23.8538 10.2939C21.9883 12.2929 21.0572 14.7436 21.0572 17.6463C21.0572 20.5489 21.9883 22.9998 23.8538 24.9985C25.7164 26.9975 27.9551 27.997 30.5608 27.997C33.2978 27.997 35.4228 27.0424 36.9362 25.1332V27.4464H41.9804V7.84315H36.9362V10.1563ZM35.3901 21.6262C34.3604 22.6586 33.062 23.1762 31.4979 23.1762C29.934 23.1762 28.6416 22.6615 27.6267 21.6262C26.6089 20.5938 26.1015 19.2681 26.1015 17.6463C26.1015 16.0244 26.6089 14.6987 27.6267 13.6664C28.6445 12.634 29.934 12.1163 31.4979 12.1163C33.062 12.1163 34.3604 12.634 35.3901 13.6664C36.4198 14.6987 36.9362 16.0274 36.9362 17.6463C36.9362 19.2651 36.4198 20.5938 35.3901 21.6262Z" fill="white"/>
<path d="M45.6191 17.332V27.4494H50.6097V17.2573C50.6097 14.4025 51.9767 12.9571 54.7136 12.9571H56.3761V7.84312H55.6747C49.1319 7.84312 45.7682 10.9941 45.6191 17.332Z" fill="white"/>
<path d="M70.4017 7.29552C67.7422 7.29552 65.7992 8.2112 64.5753 10.0396V7.84314H59.5311V27.4494H64.5753V16.8623C64.5753 15.2404 64.9664 14.0255 65.7484 13.2145C66.5305 12.4036 67.5721 11.9996 68.8764 11.9996C70.0495 11.9996 70.9896 12.3467 71.6912 13.038C72.3955 13.7322 72.7476 14.7317 72.7476 16.0364V27.4464H77.7919V15.4079C77.7919 12.8734 77.0936 10.8864 75.6995 9.44706C74.3058 8.01071 72.5389 7.28954 70.4017 7.28954V7.29552Z" fill="white"/>
<path d="M115.457 10.1563C113.944 8.24712 111.818 7.29553 109.081 7.29553C106.344 7.29553 104.237 8.29498 102.375 10.2939C100.509 12.2929 99.578 14.7436 99.578 17.6463C99.578 20.5489 100.509 22.9998 102.375 24.9985C104.237 26.9975 106.476 27.997 109.081 27.997C111.818 27.997 113.944 27.0424 115.457 25.1332V27.4464H120.501V7.84315H115.457V10.1563ZM113.911 21.6262C112.881 22.6586 111.583 23.1762 110.019 23.1762C108.455 23.1762 107.165 22.6615 106.147 21.6262C105.129 20.5938 104.622 19.2681 104.622 17.6463C104.622 16.0244 105.129 14.6987 106.147 13.6664C107.165 12.634 108.455 12.1163 110.019 12.1163C111.583 12.1163 112.881 12.634 113.911 13.6664C114.94 14.6987 115.457 16.0274 115.457 17.6463C115.457 19.2651 114.94 20.5938 113.911 21.6262Z" fill="#54B0E4"/>
<path d="M143.203 10.2939C141.338 8.29498 139.09 7.29553 136.458 7.29553C133.825 7.29553 131.607 8.2501 130.121 10.1562V0.00301031H125.077V27.4494H130.121V25.1362C131.607 27.0454 133.718 28 136.458 28C139.198 28 141.341 27.0005 143.203 25.0015C145.069 23.0027 146 20.5519 146 17.6492C146 14.7466 145.069 12.2958 143.203 10.2969V10.2939ZM139.41 21.6261C138.38 22.6586 137.082 23.1762 135.517 23.1762C133.953 23.1762 132.664 22.6615 131.646 21.6261C130.628 20.5938 130.121 19.2682 130.121 17.6463C130.121 16.0244 130.628 14.6987 131.646 13.6664C132.664 12.634 133.953 12.1163 135.517 12.1163C137.082 12.1163 138.38 12.634 139.41 13.6664C140.439 14.6987 140.956 16.0273 140.956 17.6463C140.956 19.2651 140.439 20.5938 139.41 21.6261Z" fill="#54B0E4"/>
<path d="M97.0946 22.2725H87.7284V0.00301031H82.332V27.4494H100.288C100.205 27.3625 100.118 27.2789 100.035 27.1891C98.6795 25.7347 97.6976 24.0888 97.0946 22.2725Z" fill="#54B0E4"/>
<path d="M14.7685 5.17688C16.825 5.17688 18.4906 3.5071 18.4906 1.44534V0H0V27.4494H18.4906V26.0039C18.4906 23.9422 16.825 22.2725 14.7685 22.2725H5.63811V16.1171H14.7685C16.825 16.1171 18.4906 14.4473 18.4906 12.3856V11.021H5.63811V5.17986H14.7685V5.17688Z" fill="white"/>
</g>
</svg>
